<svg width="234" height="204" viewBox="0 0 234 204" fill="none" xmlns="http://www.w3.org/2000/svg">
<path d="M129.716 113.565C121.878 120.763 109.871 120.695 102.31 113.41L53.3999 66.2867C40.4431 53.8032 49.6498 31.7004 67.7639 31.8025L167.376 32.3642C185.49 32.4663 193.849 54.6682 180.418 67.0029L129.716 113.565Z" fill="#96D91C" fill-opacity="0.85"/>
<path d="M103.766 90.9761C111.474 83.6934 123.527 83.6934 131.235 90.9761L180.969 137.962C194.121 150.387 185.327 172.5 167.234 172.5H67.767C49.6737 172.5 40.8801 150.387 54.0321 137.962L103.766 90.9761Z" fill="#34B458" fill-opacity="0.85"/>
<path fill-rule="evenodd" clip-rule="evenodd" d="M102.31 113.41C109.871 120.695 121.878 120.763 129.716 113.565L142.611 101.723L131.235 90.9761C123.527 83.6934 111.474 83.6934 103.766 90.9761L91.2742 102.777L102.31 113.41Z" fill="#2D7334" fill-opacity="0.85"/>
</svg>
